<?xml version="1.0" encoding="utf-8"?>
<!-- Generator: Adobe Illustrator 15.1.0, SVG Export Plug-In . SVG Version: 6.00 Build 0)  -->
<!DOCTYPE svg PUBLIC "-//W3C//DTD SVG 1.1//EN" "http://www.w3.org/Graphics/SVG/1.1/DTD/svg11.dtd">
<svg version="1.1" id="Layer_1" xmlns="http://www.w3.org/2000/svg" xmlns:xlink="http://www.w3.org/1999/xlink" x="0px" y="0px"
	 width="64px" height="64px" viewBox="0 0 64 64" enable-background="new 0 0 64 64" xml:space="preserve">
<g>
	<g>
		<path d="M-2.198-250.349c31.738,0,63.475,0,95.213,0c-2.772,27.958-17.65,40.956-30.479,56.467
			c-2.323,48.885,4.783,109.453-3.808,150.594C3.728-34.583,35.227-156.886,32.068-184.463
			C23.443-209.882-1.68-214.911-2.198-250.349z"/>
		<path d="M207.275-231.531c2.235,16.889-4.433,22.758-7.635,32.938c21.556,6.308,45.679,9.438,68.552,14.12
			c7.283,18.847,0.879,43.46-7.614,56.467c-32.997-13.5-38.835,12.377-72.359,9.409c11.5,59.519,44.438,92.535,45.688,164.705
			c6.189,9.628,28.115-0.215,34.285,9.413c1.914,46.248,14.166,79.763,19.037,122.349c-21.136,32.996-54.553,69.674-99.011,47.058
			c-0.381-14.599,4.656-22.489,7.614-32.947c27.481,10.995,45.679-2.422,57.13-23.534c-3.416-20.878-12.544-34.695-15.22-56.462
			c-58.779,13.661-91.483,59.509-171.398,47.059C48.294,201.052,85.479,311.31,43.5,323.751
			c-33.065-25.155-6.111-138.432-15.229-178.83c-6.15,1.328-6.561-4.443-11.427-4.707c-26.144,1.27-42.608,53.562-83.781,51.766
			c8.464,36.014,36.019,90.016,15.234,131.771c-52.693-8.633-28.911-111.733-68.547-136.479
			c2.197-26.093,19.383-29.119,22.849-56.452c4.559-35.955-19.261-81.158,0-117.651c-37.898,1.797-23.698,67.965-49.51,84.703
			c-37.688,5.781-58.013-9.872-60.952-47.048c11.808-1.592,18.192,10.907,26.661,0C-165.465,7.33-127.577-42.238-74.566-10.35
			C-25.784-51.291,86.172,11.509,115.859-48C106.692-151.223,105.336-253.889,207.275-231.531z"/>
	</g>
</g>
</svg>
