<?xml version="1.0" encoding="utf-8"?>
<!-- Generator: Adobe Illustrator 15.1.0, SVG Export Plug-In . SVG Version: 6.00 Build 0)  -->
<!DOCTYPE svg PUBLIC "-//W3C//DTD SVG 1.1//EN" "http://www.w3.org/Graphics/SVG/1.1/DTD/svg11.dtd">
<svg version="1.1" id="Layer_1" xmlns="http://www.w3.org/2000/svg" xmlns:xlink="http://www.w3.org/1999/xlink" x="0px" y="0px"
	 width="64px" height="64px" viewBox="0 0 64 64" enable-background="new 0 0 64 64" xml:space="preserve">
<g>
	<g>
		<path fill-rule="evenodd" clip-rule="evenodd" fill="#FFFFFF" d="M0.381,0c21.208,0,42.415,0,63.623,0c0,21.334,0,42.669,0,64.003
			c-21.335,0-42.669,0-64.004,0C0,43.14,0,22.275,0,1.412C-0.033,0.744-0.063,0.079,0.381,0z M32.002,10.354
			c0.316,2.758-2.835,14.989,2.667,14.118c0.86-4.113,0.147-10.171,0.381-15.06c1.283-1.552,2.771-2.852,3.048-5.647
			c-3.175,0-6.35,0-9.524,0C28.625,7.309,31.138,7.812,32.002,10.354z M40.384,24.001c-2.971,5.951-14.169-0.329-19.049,3.765
			c-5.303-3.189-9.093,1.768-10.667,6.118c-0.847,1.09-1.486-0.159-2.667,0c0.293,3.717,2.327,5.283,6.096,4.706
			c2.582-1.674,1.162-8.291,4.953-8.471c-1.927,3.648,0.456,8.17,0,11.766c-0.346,2.733-2.065,3.036-2.286,5.646
			c3.966,2.475,1.587,12.785,6.857,13.648c2.079-4.176-0.677-9.577-1.524-13.178c4.12,0.181,5.767-5.05,8.381-5.177
			c0.487,0.026,0.528,0.604,1.143,0.471c0.912,4.04-1.783,15.368,1.523,17.884c4.2-1.244,0.48-12.271,2.286-16.472
			c7.993,1.245,11.266-3.34,17.145-4.706c0.269,2.178,1.182,3.56,1.523,5.647c-1.146,2.11-2.966,3.451-5.715,2.353
			c-0.296,1.046-0.8,1.835-0.762,3.295c4.448,2.261,7.79-1.407,9.905-4.706c-0.488-4.26-1.713-7.61-1.905-12.236
			c-0.617-0.963-2.811,0.021-3.429-0.941c-0.126-7.217-3.421-10.52-4.571-16.471c3.354,0.297,3.938-2.291,7.238-0.941
			c0.85-1.301,1.49-3.763,0.762-5.647c-2.288-0.468-4.701-0.781-6.857-1.412c0.319-1.018,0.986-1.605,0.763-3.294
			C39.33,3.411,39.466,13.678,40.384,24.001z"/>
		<path fill-rule="evenodd" clip-rule="evenodd" d="M28.573,3.765c3.175,0,6.35,0,9.524,0c-0.276,2.796-1.765,4.096-3.048,5.647
			c-0.233,4.889,0.479,10.946-0.381,15.06c-5.502,0.871-2.351-11.36-2.667-14.118C31.138,7.812,28.625,7.309,28.573,3.765z"/>
		<path fill-rule="evenodd" clip-rule="evenodd" d="M49.527,5.647c0.224,1.689-0.443,2.276-0.763,3.294
			c2.156,0.631,4.569,0.944,6.857,1.412c0.729,1.885,0.088,4.346-0.762,5.647c-3.301-1.35-3.884,1.238-7.238,0.941
			c1.15,5.952,4.445,9.254,4.571,16.471c0.618,0.963,2.812-0.021,3.429,0.941c0.192,4.626,1.417,7.977,1.905,12.236
			c-2.115,3.299-5.457,6.967-9.905,4.706c-0.038-1.46,0.466-2.249,0.762-3.295c2.749,1.099,4.569-0.242,5.715-2.353
			c-0.342-2.088-1.255-3.47-1.523-5.647c-5.879,1.366-9.151,5.951-17.145,4.706c-1.806,4.201,1.914,15.228-2.286,16.472
			c-3.307-2.516-0.611-13.844-1.523-17.884c-0.615,0.133-0.656-0.444-1.143-0.471c-2.615,0.127-4.262,5.357-8.381,5.177
			c0.847,3.601,3.603,9.002,1.524,13.178c-5.271-0.863-2.892-11.174-6.857-13.648c0.22-2.61,1.939-2.913,2.286-5.646
			c0.456-3.596-1.927-8.117,0-11.766c-3.791,0.18-2.371,6.797-4.953,8.471C10.327,39.167,8.294,37.601,8,33.884
			c1.181-0.159,1.82,1.09,2.667,0c1.574-4.35,5.364-9.307,10.667-6.118c4.88-4.094,16.079,2.186,19.049-3.765
			C39.466,13.678,39.33,3.411,49.527,5.647z"/>
	</g>
</g>
</svg>
